<svg width="16" height="15" fill="none" xmlns="http://www.w3.org/2000/svg"><path d="M7.5 1.006c.648 0 1.204.092 1.76.274a6.376 6.376 0 0 1 4.444 4.574 6.75 6.75 0 0 1-.463 4.481c-.185.275-.185.64-.093 1.006l.649 2.287-2.223-.549c-.092 0-.277-.091-.37-.091-.278 0-.463.091-.648.183a5.882 5.882 0 0 1-3.056.823c-.555 0-1.11-.092-1.574-.183-2.222-.732-3.889-2.378-4.63-4.573a6.474 6.474 0 0 1 1.112-5.67C3.61 1.92 5.463 1.005 7.5 1.005zm0-.64C3.52.366.278 3.659.37 7.59c0 .64.093 1.28.278 1.83.741 2.378 2.686 4.299 5.093 5.03.556.092 1.204.183 1.76.183 1.203 0 2.314-.274 3.425-.823.093-.091.185-.091.37-.091h.186l3.055.823h.093c.092 0 .185-.092.185-.183l-.926-3.201c-.092-.183 0-.366.093-.55.74-1.554.926-3.292.555-5.03-.555-2.47-2.5-4.39-5-5.03C8.797.457 8.148.366 7.5.366zm0 .366c.648 0 1.297.091 1.852.274 2.315.64 4.167 2.47 4.722 4.756.37 1.555.278 3.293-.463 4.756a1.31 1.31 0 0 0-.092 1.006l.648 2.378-2.315-.64c-.093 0-.278-.091-.37-.091-.278 0-.463.091-.741.183a6.823 6.823 0 0 1-3.24.823c-.556 0-1.112-.092-1.667-.183-2.315-.732-4.074-2.47-4.908-4.756C.371 7.226.834 5.03 2.13 3.384 3.426 1.646 5.37.732 7.5.732zM7.5 0C3.334 0 0 3.384 0 7.591c0 .64.093 1.28.278 1.921.833 2.561 2.87 4.482 5.37 5.305C6.297 15 6.852 15 7.5 15c1.204 0 2.5-.274 3.519-.915.092-.091.277-.091.37-.091h.185l3.149.823c.092 0 .185 0 .277-.091v-.092l-.833-3.293c-.093-.182 0-.365.092-.548a7.3 7.3 0 0 0 .556-5.214C14.167 3.02 12.223 1.006 9.63.274A8.504 8.504 0 0 0 7.5 0z" fill="#262627"/></svg>