<svg xmlns="http://www.w3.org/2000/svg" width="11" height="11" viewBox="0 0 11 11">
  <metadata><?xpacket begin="﻿" id="W5M0MpCehiHzreSzNTczkc9d"?>
<x:xmpmeta xmlns:x="adobe:ns:meta/" x:xmptk="Adobe XMP Core 5.6-c138 79.159824, 2016/09/14-01:09:01        ">
   <rdf:RDF xmlns:rdf="http://www.w3.org/1999/02/22-rdf-syntax-ns#">
      <rdf:Description rdf:about=""/>
   </rdf:RDF>
</x:xmpmeta>
                                                                                                    
                                                                                                    
                                                                                                    
                                                                                                    
                                                                                                    
                                                                                                    
                                                                                                    
                                                                                                    
                                                                                                    
                                                                                                    
                                                                                                    
                                                                                                    
                                                                                                    
                                                                                                    
                                                                                                    
                                                                                                    
                                                                                                    
                                                                                                    
                                                                                                    
                                                                                                    
                           
<?xpacket end="w"?></metadata>
<defs>
    <style>
      .cls-1 {
        fill: #354e90;
        fill-rule: evenodd;
      }
    </style>
  </defs>
  <path id="Фигура_1" data-name="Фигура 1" class="cls-1" d="M16.518,4H8.482A1.482,1.482,0,0,0,7,5.482v8.035A1.482,1.482,0,0,0,8.482,15h3.963l0.007-3.931H11.431a0.241,0.241,0,0,1-.241-0.24l0-1.267a0.241,0.241,0,0,1,.241-0.242h1.019V8.1A2,2,0,0,1,14.581,5.9h1.04a0.241,0.241,0,0,1,.241.241V7.211a0.241,0.241,0,0,1-.241.241H14.982a0.689,0.689,0,0,0-.823.808V9.32h1.515a0.241,0.241,0,0,1,.239.269l-0.15,1.267a0.241,0.241,0,0,1-.239.213H14.166L14.16,15h2.358A1.482,1.482,0,0,0,18,13.518V5.482A1.482,1.482,0,0,0,16.518,4Z" transform="translate(-7 -4)"/>
</svg>
