<svg xmlns="http://www.w3.org/2000/svg" width="12" height="12" viewBox="0 0 12 12">
  <metadata><?xpacket begin="﻿" id="W5M0MpCehiHzreSzNTczkc9d"?>
<x:xmpmeta xmlns:x="adobe:ns:meta/" x:xmptk="Adobe XMP Core 5.6-c138 79.159824, 2016/09/14-01:09:01        ">
   <rdf:RDF xmlns:rdf="http://www.w3.org/1999/02/22-rdf-syntax-ns#">
      <rdf:Description rdf:about=""/>
   </rdf:RDF>
</x:xmpmeta>
                                                                                                    
                                                                                                    
                                                                                                    
                                                                                                    
                                                                                                    
                                                                                                    
                                                                                                    
                                                                                                    
                                                                                                    
                                                                                                    
                                                                                                    
                                                                                                    
                                                                                                    
                                                                                                    
                                                                                                    
                                                                                                    
                                                                                                    
                                                                                                    
                                                                                                    
                                                                                                    
                           
<?xpacket end="w"?></metadata>
<defs>
    <style>
      .cls-1 {
        fill: #4c4f56;
        fill-rule: evenodd;
      }
    </style>
  </defs>
  <path id="Фигура_2" data-name="Фигура 2" class="cls-1" d="M149,2.994a6,6,0,1,0,6,6A6,6,0,0,0,149,2.994Zm1.249,9.3c-0.309.122-.554,0.214-0.739,0.278a1.951,1.951,0,0,1-.641.1A1.277,1.277,0,0,1,148,12.395a0.884,0.884,0,0,1-.31-0.694,2.56,2.56,0,0,1,.022-0.335c0.016-.114.041-0.242,0.075-0.386l0.387-1.365c0.034-.131.063-0.256,0.087-0.371a1.672,1.672,0,0,0,.034-0.322,0.494,0.494,0,0,0-.108-0.364,0.61,0.61,0,0,0-.413-0.1,1.084,1.084,0,0,0-.307.046c-0.1.032-.195,0.061-0.269,0.089l0.1-.421c0.253-.1.5-0.192,0.727-0.265a2.142,2.142,0,0,1,.655-0.111,1.256,1.256,0,0,1,.86.269,0.9,0.9,0,0,1,.3.7c0,0.059-.007.164-0.02,0.313a2.087,2.087,0,0,1-.078.412l-0.384,1.361a3.6,3.6,0,0,0-.085.374,1.961,1.961,0,0,0-.037.318,0.458,0.458,0,0,0,.121.37,0.681,0.681,0,0,0,.42.1,1.21,1.21,0,0,0,.318-0.049,1.762,1.762,0,0,0,.257-0.086ZM150.18,6.768a0.916,0.916,0,0,1-.647.25,0.929,0.929,0,0,1-.651-0.25,0.817,0.817,0,0,1,0-1.214,0.923,0.923,0,0,1,.651-0.252,0.91,0.91,0,0,1,.647.252A0.819,0.819,0,0,1,150.18,6.768Z" transform="translate(-143 -3)"/>
</svg>
