<svg xmlns="http://www.w3.org/2000/svg" width="17" height="18" viewBox="0 0 17 18">
  <metadata><?xpacket begin="﻿" id="W5M0MpCehiHzreSzNTczkc9d"?>
<x:xmpmeta xmlns:x="adobe:ns:meta/" x:xmptk="Adobe XMP Core 5.6-c138 79.159824, 2016/09/14-01:09:01        ">
   <rdf:RDF xmlns:rdf="http://www.w3.org/1999/02/22-rdf-syntax-ns#">
      <rdf:Description rdf:about=""/>
   </rdf:RDF>
</x:xmpmeta>
                                                                                                    
                                                                                                    
                                                                                                    
                                                                                                    
                                                                                                    
                                                                                                    
                                                                                                    
                                                                                                    
                                                                                                    
                                                                                                    
                                                                                                    
                                                                                                    
                                                                                                    
                                                                                                    
                                                                                                    
                                                                                                    
                                                                                                    
                                                                                                    
                                                                                                    
                                                                                                    
                           
<?xpacket end="w"?></metadata>
<defs>
    <style>
      .cls-1 {
        fill: #8093af;
        fill-rule: evenodd;
      }
    </style>
  </defs>
  <path id="Фигура_3" data-name="Фигура 3" class="cls-1" d="M49.418,18.16a3.4,3.4,0,0,0-2.6,1.2L42.772,17.11a3.258,3.258,0,0,0,0-2.219l4.042-2.254a3.4,3.4,0,0,0,2.6,1.2,3.324,3.324,0,1,0-3.385-3.324,3.255,3.255,0,0,0,.195,1.11L42.186,13.88a3.4,3.4,0,0,0-2.6-1.2,3.323,3.323,0,1,0,0,6.645,3.4,3.4,0,0,0,2.6-1.2l4.042,2.253a3.254,3.254,0,0,0-.195,1.11A3.385,3.385,0,1,0,49.418,18.16Zm0-9.8a2.161,2.161,0,1,1-2.2,2.16A2.183,2.183,0,0,1,49.418,8.356Zm-9.836,9.8a2.16,2.16,0,1,1,2.2-2.16A2.183,2.183,0,0,1,39.583,18.16Zm9.836,5.483a2.161,2.161,0,1,1,2.2-2.16A2.183,2.183,0,0,1,49.418,23.644Zm0,1.356a3.554,3.554,0,0,1-3.582-3.517,3.438,3.438,0,0,1,.154-1.02l-3.761-2.1a3.6,3.6,0,0,1-2.647,1.149,3.517,3.517,0,1,1,0-7.033,3.6,3.6,0,0,1,2.647,1.15l3.761-2.1a3.441,3.441,0,0,1-.154-1.02A3.554,3.554,0,0,1,49.418,7,3.591,3.591,0,0,1,51.95,8.031,3.46,3.46,0,0,1,53,10.517a3.554,3.554,0,0,1-3.582,3.518,3.6,3.6,0,0,1-2.647-1.15l-3.761,2.1a3.45,3.45,0,0,1,0,2.039l3.761,2.1A3.622,3.622,0,0,1,51.95,19,3.461,3.461,0,0,1,53,21.484,3.554,3.554,0,0,1,49.418,25ZM42.14,17.872l4.33,2.413-0.056.153a3.061,3.061,0,0,0-.183,1.045,3.188,3.188,0,0,0,6.374,0,3.08,3.08,0,0,0-.934-2.212,3.222,3.222,0,0,0-4.7.215l-0.105.125L42.531,17.2l0.056-.153a3.069,3.069,0,0,0,0-2.09L42.531,14.8l4.33-2.414,0.106,0.125a3.2,3.2,0,0,0,2.452,1.133,3.162,3.162,0,0,0,3.187-3.13,3.079,3.079,0,0,0-.934-2.211,3.2,3.2,0,0,0-2.252-.918,3.162,3.162,0,0,0-3.187,3.129,3.063,3.063,0,0,0,.183,1.045l0.056,0.153-4.33,2.414L42.034,14a3.2,3.2,0,0,0-2.452-1.133,3.129,3.129,0,1,0,0,6.258A3.2,3.2,0,0,0,42.034,18Zm7.278,5.966a2.355,2.355,0,1,1,2.4-2.354A2.379,2.379,0,0,1,49.418,23.838Zm0-4.321a1.967,1.967,0,1,0,2,1.967A1.987,1.987,0,0,0,49.418,19.517Zm-9.836-1.163A2.354,2.354,0,1,1,41.98,16,2.379,2.379,0,0,1,39.583,18.354Zm0-4.32a1.966,1.966,0,1,0,2,1.966A1.987,1.987,0,0,0,39.583,14.034Zm9.836-1.163a2.355,2.355,0,1,1,2.4-2.355A2.379,2.379,0,0,1,49.418,12.871Zm0-4.321a1.967,1.967,0,1,0,2,1.966A1.987,1.987,0,0,0,49.418,8.55Z" transform="translate(-36 -7)"/>
</svg>
